<svg width="1162" height="436" xmlns="http://www.w3.org/2000/svg" viewBox="0 0 752 251.43"><defs><style>.cls-1{fill:#403a60;}</style></defs><g id="Layer_2" data-name="Layer 2"><g id="logos"><path class="cls-1" d="M157.46,206.56a4,4,0,0,1,8,0v16.66h19V206.56a4,4,0,1,1,7.95,0v40.79a4,4,0,1,1-7.95,0V230.63h-19v16.72a4,4,0,1,1-8,0Z"/><path class="cls-1" d="M203.16,227a24.38,24.38,0,1,1,24.34,24.47A24.22,24.22,0,0,1,203.16,227Zm40.52,0c0-9.39-7.13-16.8-16.18-16.8s-16.11,7.41-16.11,16.8,7.14,16.72,16.11,16.72S243.68,236.27,243.68,227Z"/><path class="cls-1" d="M267.89,210.57h-9a3.71,3.71,0,1,1,0-7.41H285a3.71,3.71,0,1,1,0,7.41h-9v36.78a4,4,0,1,1-8,0Z"/><path class="cls-1" d="M316,240.35a4,4,0,0,1,3.94-3.94,3.67,3.67,0,0,1,3.47,2.24c.95,2.24,2.92,5.3,7.48,5.3a6.87,6.87,0,0,0,7.07-6.79c0-4.36-3.74-5.92-7.27-7l-3.47-1c-4.69-1.49-10.81-4.55-10.81-13.46,0-7.55,6.25-13.19,14.48-13.19,8.63,0,14.21,6.05,14.21,10.54A4,4,0,0,1,341.2,217a3.4,3.4,0,0,1-3.33-2.24c-1-2.11-2.79-4.83-6.94-4.83a6.28,6.28,0,0,0-6.46,6.26c0,4.14,3.88,5.71,6.73,6.52l3,1c5,1.56,11.83,4.28,11.83,14.07,0,7.68-6.59,13.73-15.09,13.73S316,245,316,240.35Z"/><path class="cls-1" d="M356.84,207.1a4,4,0,0,1,4-3.94h11c9,0,15,6.39,15,14.28s-6,14.21-15,14.21h-1.08a3.71,3.71,0,1,1,0-7.41h.81a6.84,6.84,0,1,0,0-13.67h-6.73v36.78a4,4,0,1,1-8,0Z"/><path class="cls-1" d="M396.28,207.1a4,4,0,0,1,4-3.94h11.56c8.91,0,15,6.39,15,14.28,0,6.53-4.08,11-8.84,12.17l-.89.07,12.65,15.09a3.75,3.75,0,0,1,.95,2.65,3.94,3.94,0,0,1-3.94,4,3.88,3.88,0,0,1-3.13-1.5L407.7,231a5.11,5.11,0,0,1-1.22-3.13,3.58,3.58,0,0,1,3.6-3.6h1.5a6.84,6.84,0,1,0,0-13.67H404.3v36.78a4,4,0,1,1-8,0Z"/><path class="cls-1" d="M439.46,206.56a4,4,0,1,1,8,0v40.79a4,4,0,1,1-8,0Z"/><path class="cls-1" d="M459.52,206.76a4.13,4.13,0,0,1,4.15-4.21,4,4,0,0,1,3.19,1.43l21.83,26V206.56a4,4,0,1,1,7.95,0v40.79a4,4,0,1,1-7.95,0v-5l-21.15-25.22v30.18a4,4,0,1,1-8,0Z"/><path class="cls-1" d="M508.07,227a24.22,24.22,0,0,1,24.34-24.48,23.88,23.88,0,0,1,18,7.89,3.94,3.94,0,0,1-2.92,6.66,5.07,5.07,0,0,1-3.2-1.56,15.6,15.6,0,0,0-11.83-5.31c-9,0-16.11,7.41-16.11,16.8s7.14,16.72,16.11,16.72A15.86,15.86,0,0,0,547.64,232H536a3.71,3.71,0,1,1,0-7.41h16.93a3.73,3.73,0,0,1,3.68,3.94c-.34,11.22-10.27,22.91-24.21,22.91A24.21,24.21,0,0,1,508.07,227Z"/><path class="cls-1" d="M564.58,240.35a4,4,0,0,1,3.94-3.94,3.67,3.67,0,0,1,3.47,2.24c1,2.24,2.92,5.3,7.48,5.3a6.87,6.87,0,0,0,7.07-6.79c0-4.36-3.74-5.92-7.28-7l-3.46-1c-4.69-1.49-10.81-4.55-10.81-13.46,0-7.55,6.25-13.19,14.48-13.19,8.63,0,14.21,6.05,14.21,10.54a4,4,0,0,1-3.94,3.94,3.42,3.42,0,0,1-3.34-2.24c-.95-2.11-2.78-4.83-6.93-4.83a6.28,6.28,0,0,0-6.46,6.26c0,4.14,3.87,5.71,6.73,6.52l3,1c5,1.56,11.83,4.28,11.83,14.07,0,7.68-6.59,13.73-15.09,13.73S564.58,245,564.58,240.35Z"/><path class="cls-1" d="M0,103C0,68.43,23.14,46,54.79,46A12.32,12.32,0,0,1,67.21,58.45,12.47,12.47,0,0,1,54.79,70.87c-16.07,0-28,10.71-28,32.14v58.21a13.4,13.4,0,1,1-26.79,0Z"/><path class="cls-1" d="M178.75,161.22V110.56c0-22.4-16.32-39.69-37.5-39.69-21,0-37.51,17.29-37.51,39.69,0,21.92,16.32,39.7,37.51,39.7a37,37,0,0,0,13.88-2.68,10.89,10.89,0,0,1,4.87-1A12.67,12.67,0,0,1,164.87,171a65.81,65.81,0,0,1-23.62,4.14c-36,0-64.54-27.76-64.54-64.54,0-36,27.76-64.53,64.54-64.53,36,0,64.29,27.27,64.29,64.53v50.66a13.56,13.56,0,0,1-13.4,13.63A13.4,13.4,0,0,1,178.75,161.22Z"/><path class="cls-1" d="M230.62,110.56c0-37,28.49-64.53,64.53-64.53a65.81,65.81,0,0,1,23.62,4.14,12.66,12.66,0,0,1-4.87,24.35,10.92,10.92,0,0,1-4.87-1,36.81,36.81,0,0,0-13.88-2.68c-21.19,0-37.5,17.77-37.5,39.69,0,22.16,16.56,39.7,37.5,39.7,21.19,0,37.5-17.54,37.5-39.7V13.39A13.2,13.2,0,0,1,346.05,0a13.35,13.35,0,0,1,13.39,13.39v97.17c0,37.26-28.25,64.54-64.29,64.54C258.38,175.1,230.62,146.6,230.62,110.56Z"/><path class="cls-1" d="M388.17,16.32A15.83,15.83,0,1,1,404,32.15,16,16,0,0,1,388.17,16.32Zm2.44,43.34a13.4,13.4,0,0,1,26.79,0V161.22a13.4,13.4,0,1,1-26.79,0Z"/><path class="cls-1" d="M448.57,59.66a13.39,13.39,0,0,1,26.78,0v59.43c0,20.45,12.42,31.17,28,31.17s28-10.72,28-31.17V59.66a13.2,13.2,0,0,1,13.39-13.39,13.35,13.35,0,0,1,13.39,13.39v58.45c0,34.83-24.11,57-54.79,57s-54.79-22.16-54.79-57Z"/><path class="cls-1" d="M589.08,95c0-30.44,20.46-48.95,46.27-48.95,14.86,0,27.27,5.11,35.31,18,7.55-12.91,20.7-18,35.07-18C731.54,46,752,64.54,752,95v66.24a13.4,13.4,0,1,1-26.79,0V94.73c0-16.07-9-23.86-20.7-23.86-11.44,0-20.45,7.79-20.45,23.86v66.49a13.56,13.56,0,0,1-13.4,13.63,13.4,13.4,0,0,1-13.39-13.63V94.73c0-16.07-9.26-23.86-20.7-23.86s-20.7,7.79-20.7,23.86v66.49a13.4,13.4,0,1,1-26.79,0Z"/></g></g></svg>